<mxfile host="app.diagrams.net" modified="2021-06-07T04:28:56.060Z" agent="5.0 (Windows NT 10.0; Win64; x64) AppleWebKit/537.36 (KHTML, like Gecko) Chrome/91.0.4472.77 Safari/537.36" etag="Hyh-yMKiabt7MpDZDFoJ" version="14.7.6" type="github">
  <diagram id="78VgAx4G6hqRdHA-PGtD" name="Page-1">
    <mxGraphModel dx="1038" dy="547" grid="1" gridSize="10" guides="1" tooltips="1" connect="1" arrows="1" fold="1" page="1" pageScale="1" pageWidth="827" pageHeight="1169" math="0" shadow="0">
      <root>
        <mxCell id="0" />
        <mxCell id="1" parent="0" />
        <mxCell id="pd7Hdk2gp9Ah2MSIdXXy-5" style="edgeStyle=orthogonalEdgeStyle;rounded=0;orthogonalLoop=1;jettySize=auto;html=1;" edge="1" parent="1" source="pd7Hdk2gp9Ah2MSIdXXy-1" target="pd7Hdk2gp9Ah2MSIdXXy-4">
          <mxGeometry relative="1" as="geometry" />
        </mxCell>
        <mxCell id="pd7Hdk2gp9Ah2MSIdXXy-1" value="&lt;b&gt;preview_init&lt;/b&gt;" style="rounded=1;whiteSpace=wrap;html=1;fillColor=#f8cecc;strokeColor=#b85450;" vertex="1" parent="1">
          <mxGeometry x="190" y="90" width="120" height="60" as="geometry" />
        </mxCell>
        <mxCell id="pd7Hdk2gp9Ah2MSIdXXy-2" value="&lt;b&gt;objEngine&lt;/b&gt;" style="rounded=0;whiteSpace=wrap;html=1;fillColor=#dae8fc;strokeColor=#6c8ebf;" vertex="1" parent="1">
          <mxGeometry x="40" y="100" width="100" height="40" as="geometry" />
        </mxCell>
        <mxCell id="pd7Hdk2gp9Ah2MSIdXXy-3" value="" style="endArrow=none;html=1;entryX=0;entryY=0.5;entryDx=0;entryDy=0;exitX=1;exitY=0.5;exitDx=0;exitDy=0;" edge="1" parent="1" source="pd7Hdk2gp9Ah2MSIdXXy-2" target="pd7Hdk2gp9Ah2MSIdXXy-1">
          <mxGeometry width="50" height="50" relative="1" as="geometry">
            <mxPoint x="110" y="230" as="sourcePoint" />
            <mxPoint x="160" y="180" as="targetPoint" />
          </mxGeometry>
        </mxCell>
        <mxCell id="pd7Hdk2gp9Ah2MSIdXXy-4" value="&lt;b&gt;ctrl_Btn&lt;/b&gt;" style="ellipse;whiteSpace=wrap;html=1;aspect=fixed;" vertex="1" parent="1">
          <mxGeometry x="210" y="190" width="80" height="80" as="geometry" />
        </mxCell>
        <mxCell id="pd7Hdk2gp9Ah2MSIdXXy-6" value="&lt;b&gt;g_scrollModeBtn&lt;/b&gt;" style="rounded=0;whiteSpace=wrap;html=1;fillColor=#e1d5e7;strokeColor=#9673a6;" vertex="1" parent="1">
          <mxGeometry x="330" y="190" width="120" height="40" as="geometry" />
        </mxCell>
        <mxCell id="pd7Hdk2gp9Ah2MSIdXXy-7" value="&lt;b&gt;g_scrollModeMobile&lt;/b&gt;" style="rounded=0;whiteSpace=wrap;html=1;fillColor=#e1d5e7;strokeColor=#9673a6;" vertex="1" parent="1">
          <mxGeometry x="330" y="260" width="220" height="40" as="geometry" />
        </mxCell>
      </root>
    </mxGraphModel>
  </diagram>
</mxfile>
